
<svg xmlns="http://www.w3.org/2000/svg" viewBox="0 0 24 24">
  <path fill="none" d="M 129.5,42.5 C 136.244,43.3909 142.411,45.7243 148,49.5C 148.561,48.9781 149.228,48.6448 150,48.5C 154.132,49.793 158.299,50.9597 162.5,52C 163.573,54.6566 165.24,56.8232 167.5,58.5C 172.25,57.916 176.916,57.916 181.5,58.5C 187.217,63.1514 189.217,68.9847 187.5,76C 191.5,78.3333 191.5,80.6667 187.5,83C 188.38,84.3561 188.714,85.8561 188.5,87.5C 190.401,87.4332 192.234,87.7665 194,88.5C 195.531,87.7827 196.864,86.7827 198,85.5C 201.964,84.5763 205.631,83.243 209,81.5C 214.642,81.4843 219.642,83.151 224,86.5C 224.772,86.3552 225.439,86.0219 226,85.5C 227.908,88.2154 229.241,91.2154 230,94.5C 232.663,96.7127 235.496,96.7127 238.5,94.5C 239.624,93.086 240.624,91.586 241.5,90C 245.16,89.4533 248.827,88.9533 252.5,88.5C 256.896,89.7059 261.229,91.2059 265.5,93C 267.203,95.9336 269.703,97.7669 273,98.5C 273.779,97.2718 274.779,96.2718 276,95.5C 278.508,96.8632 281.008,97.1965 283.5,96.5C 282.047,94.3561 282.38,92.5227 284.5,91C 286.167,90.1667 287.833,89.3333 289.5,88.5C 290.768,89.4279 292.101,89.5946 293.5,89C 294.984,87.4263 296.651,86.093 298.5,85C 302.933,83.6719 307.6,83.1719 312.5,83.5C 313.815,85.3159 315.315,86.9825 317,88.5C 318.796,87.233 320.629,87.233 322.5,88.5C 322.887,90.7308 323.053,93.0641 323,95.5C 324.403,97.1981 326.236,97.6981 328.5,97C 330.768,97.972 332.768,99.3054 334.5,101C 333.2,103.195 332.2,105.528 331.5,108C 329.559,108.304 327.893,109.137 326.5,110.5C 324.742,109.872 323.242,108.872 322,107.5C 317.206,113.866 318.206,119.199 325,123.5C 326.784,126.219 326.95,129.052 325.5,132C 329.436,139.245 328.103,145.578 321.5,151C 317.822,151.009 315.655,152.843 315,156.5C 310.921,158.575 307.421,161.408 304.5,165C 299.517,165.819 295.517,168.152 292.5,172C 278.578,177.628 265.244,184.294 252.5,192C 248.721,198.248 244.721,204.248 240.5,210C 224.562,213.984 208.562,217.984 192.5,222C 189.554,222.806 186.888,224.139 184.5,226C 176.839,226.169 170.506,229.002 165.5,234.5C 164.389,233.389 163.055,232.722 161.5,232.5C 157.611,233.444 153.944,234.944 150.5,237C 143.735,244.66 137.068,252.493 130.5,260.5C 131.909,260.654 133.576,260.821 135.5,261C 136.863,264.241 139.197,266.407 142.5,267.5C 143.614,268.723 143.781,270.056 143,271.5C 139.758,274.205 136.258,276.539 132.5,278.5C 123.45,276.877 117.783,280.543 115.5,289.5C 110.653,289.754 107.653,287.587 106.5,283C 102.884,281.513 99.2169,280.18 95.5,279C 94.2203,276.868 94.2203,274.702 95.5,272.5C 92.6425,270.241 89.6425,268.241 86.5,266.5C 93.1547,262.628 95.1547,257.295 92.5,250.5C 93.3842,247.906 94.3842,245.406 95.5,243C 95.2305,241.486 94.8971,239.986 94.5,238.5C 90.8969,234.953 89.2303,230.62 89.5,225.5C 95.9848,225.347 98.9848,222.014 98.5,215.5C 101.585,215.582 103.252,214.082 103.5,211C 103.121,208.908 102.454,206.908 101.5,205C 101.735,204.127 102.069,203.293 102.5,202.5C 101.289,201.126 100.289,199.626 99.5,198C 101.356,195.464 101.689,192.798 100.5,190C 101.954,188.287 103.788,187.12 106,186.5C 110.266,180.439 108.766,177.439 101.5,177.5C 100.648,173.845 100.148,170.179 100,166.5C 102.19,164.612 104.023,162.445 105.5,160C 107.246,159.529 108.913,158.862 110.5,158C 111.851,154.805 114.185,152.972 117.5,152.5C 117.921,150.09 119.254,148.257 121.5,147C 120.289,145.887 120.289,144.72 121.5,143.5C 120.675,142.614 119.675,142.281 118.5,142.5C 118.421,141.07 118.754,139.736 119.5,138.5C 121.435,137.437 123.101,136.103 124.5,134.5C 125.876,130.203 127.543,126.036 129.5,122C 128.409,119.936 128.242,117.769 129,115.5C 130.713,110.695 132.213,105.862 133.5,101C 132.76,99.2151 132.093,97.3817 131.5,95.5C 132.485,93.9017 132.651,92.235 132,90.5C 130.982,88.1023 129.815,85.769 128.5,83.5C 129.242,82.7132 130.075,82.0465 131,81.5C 131.699,77.8172 132.865,74.3172 134.5,71C 133.109,69.98 131.609,69.1466 130,68.5C 128.272,63.9417 126.772,59.275 125.5,54.5C 125.015,52.2229 125.681,50.0563 127.5,48C 126.08,45.4264 126.747,43.593 129.5,42.5 Z M 130.5,44.5 C 136.825,45.5782 142.658,47.9115 148,51.5C 148.772,51.3552 149.439,51.0219 150,50.5C 153.037,51.7093 156.204,52.5426 159.5,53C 161.5,55.9161 164,58.4161 167,60.5C 176.609,57.1149 182.942,60.1149 18
  stroke="#8FC2F5" fill-opacity="0" stroke-width="8" stroke-linecap="round" stroke-linejoin="round"/>
</svg>
