<svg xmlns="http://www.w3.org/2000/svg" xmlns:xlink="http://www.w3.org/1999/xlink" width="467" zoomAndPan="magnify" viewBox="0 0 350.25 350.249992" height="467" preserveAspectRatio="xMidYMid meet" version="1.0"><defs><clipPath id="47ca2b1081"><path d="M 0 0 L 349.5 0 L 349.5 349.5 L 0 349.5 Z M 0 0 " clip-rule="nonzero"/></clipPath><clipPath id="1638ea750a"><path d="M 0 349 L 349.5 349 L 349.5 349.5 L 0 349.5 Z M 0 349 " clip-rule="nonzero"/></clipPath><clipPath id="8e6743e6f0"><path d="M 0 290 L 349.5 290 L 349.5 292 L 0 292 Z M 0 290 " clip-rule="nonzero"/></clipPath><clipPath id="a8a240fb76"><path d="M 0 232 L 349.5 232 L 349.5 234 L 0 234 Z M 0 232 " clip-rule="nonzero"/></clipPath><clipPath id="a7d158a814"><path d="M 0 174 L 349.5 174 L 349.5 175 L 0 175 Z M 0 174 " clip-rule="nonzero"/></clipPath><clipPath id="0775bec7aa"><path d="M 0 116 L 349.5 116 L 349.5 117 L 0 117 Z M 0 116 " clip-rule="nonzero"/></clipPath><clipPath id="8682a3d0ea"><path d="M 0 57 L 349.5 57 L 349.5 59 L 0 59 Z M 0 57 " clip-rule="nonzero"/></clipPath><clipPath id="b55452de92"><path d="M 0 0 L 349.5 0 L 349.5 1 L 0 1 Z M 0 0 " clip-rule="nonzero"/></clipPath><clipPath id="5629ba0dce"><path d="M 0 232.902344 L 49.46875 232.902344 L 49.46875 349.351562 L 0 349.351562 Z M 0 232.902344 " clip-rule="nonzero"/></clipPath><clipPath id="b1088927ac"><path d="M 49.96875 174.675781 L 99.441406 174.675781 L 99.441406 349.351562 L 49.96875 349.351562 Z M 49.96875 174.675781 " clip-rule="nonzero"/></clipPath><clipPath id="2e9ffef964"><path d="M 99.941406 58.226562 L 149.410156 58.226562 L 149.410156 349.351562 L 99.941406 349.351562 Z M 99.941406 58.226562 " clip-rule="nonzero"/></clipPath><clipPath id="268dd6bc62"><path d="M 149.910156 0 L 199.378906 0 L 199.378906 349.351562 L 149.910156 349.351562 Z M 149.910156 0 " clip-rule="nonzero"/></clipPath><clipPath id="f586a22632"><path d="M 199.878906 116.449219 L 249.347656 116.449219 L 249.347656 349.351562 L 199.878906 349.351562 Z M 199.878906 116.449219 " clip-rule="nonzero"/></clipPath><clipPath id="2794b0c553"><path d="M 249.847656 174.675781 L 299.320312 174.675781 L 299.320312 349.351562 L 249.847656 349.351562 Z M 249.847656 174.675781 " clip-rule="nonzero"/></clipPath><clipPath id="4deaee9b35"><path d="M 299.820312 232.902344 L 349.289062 232.902344 L 349.289062 349.351562 L 299.820312 349.351562 Z M 299.820312 232.902344 " clip-rule="nonzero"/></clipPath></defs><g clip-path="url(#47ca2b1081)"><path fill="#ffffff" d="M 0 0 L 349.5 0 L 349.5 349.5 L 0 349.5 Z M 0 0 " fill-opacity="1" fill-rule="nonzero"/></g><g clip-path="url(#1638ea750a)"><path stroke-linecap="butt" transform="matrix(0.582252, 0, 0, 0.582252, 0.00000425, 0)" fill="none" stroke-linejoin="miter" d="M -0.00000729925 600.000679 L 600.000672 600.000679 " stroke="#000000" stroke-width="1" stroke-opacity="0.6" stroke-miterlimit="4"/></g><g clip-path="url(#8e6743e6f0)"><path stroke-linecap="butt" transform="matrix(0.582252, 0, 0, 0.582252, 0.00000425, 0)" fill="none" stroke-linejoin="miter" d="M -0.00000729925 499.998329 L 600.000672 499.998329 " stroke="#000000" stroke-width="1" stroke-opacity="0.251" stroke-miterlimit="4"/></g><g clip-path="url(#a8a240fb76)"><path stroke-linecap="butt" transform="matrix(0.582252, 0, 0, 0.582252, 0.00000425, 0)" fill="none" stroke-linejoin="miter" d="M -0.00000729925 400.002689 L 600.000672 400.002689 " stroke="#000000" stroke-width="1" stroke-opacity="0.251" stroke-miterlimit="4"/></g><g clip-path="url(#a7d158a814)"><path stroke-linecap="butt" transform="matrix(0.582252, 0, 0, 0.582252, 0.00000425, 0)" fill="none" stroke-linejoin="miter" d="M -0.00000729925 300.000339 L 600.000672 300.000339 " stroke="#000000" stroke-width="1" stroke-opacity="0.251" stroke-miterlimit="4"/></g><g clip-path="url(#0775bec7aa)"><path stroke-linecap="butt" transform="matrix(0.582252, 0, 0, 0.582252, 0.00000425, 0)" fill="none" stroke-linejoin="miter" d="M -0.00000729925 199.99799 L 600.000672 199.99799 " stroke="#000000" stroke-width="1" stroke-opacity="0.251" stroke-miterlimit="4"/></g><g clip-path="url(#8682a3d0ea)"><path stroke-linecap="butt" transform="matrix(0.582252, 0, 0, 0.582252, 0.00000425, 0)" fill="none" stroke-linejoin="miter" d="M -0.00000729925 100.002349 L 600.000672 100.002349 " stroke="#000000" stroke-width="1" stroke-opacity="0.251" stroke-miterlimit="4"/></g><g clip-path="url(#b55452de92)"><path stroke-linecap="butt" transform="matrix(0.582252, 0, 0, 0.582252, 0.00000425, 0)" fill="none" stroke-linejoin="miter" d="M -0.00000729925 0 L 600.000672 0 " stroke="#000000" stroke-width="1" stroke-opacity="0.251" stroke-miterlimit="4"/></g><g clip-path="url(#5629ba0dce)"><path fill="#7bacfc" d="M 3.957031 232.902344 L 45.511719 232.902344 C 45.773438 232.902344 46.03125 232.925781 46.285156 232.976562 C 46.539062 233.027344 46.785156 233.101562 47.027344 233.203125 C 47.265625 233.300781 47.496094 233.421875 47.710938 233.566406 C 47.925781 233.710938 48.128906 233.875 48.3125 234.058594 C 48.496094 234.242188 48.660156 234.445312 48.804688 234.660156 C 48.949219 234.875 49.070312 235.105469 49.167969 235.34375 C 49.269531 235.582031 49.34375 235.832031 49.394531 236.085938 C 49.445312 236.339844 49.46875 236.597656 49.46875 236.859375 L 49.46875 349.351562 C 49.46875 349.609375 49.445312 349.867188 49.394531 350.125 C 49.34375 350.378906 49.269531 350.625 49.167969 350.867188 C 49.070312 351.105469 48.949219 351.332031 48.804688 351.550781 C 48.660156 351.765625 48.496094 351.964844 48.3125 352.148438 C 48.128906 352.332031 47.925781 352.496094 47.710938 352.640625 C 47.496094 352.785156 47.265625 352.90625 47.027344 353.007812 C 46.785156 353.105469 46.539062 353.183594 46.285156 353.234375 C 46.03125 353.285156 45.773438 353.308594 45.511719 353.308594 L 3.957031 353.308594 C 3.699219 353.308594 3.441406 353.285156 3.183594 353.234375 C 2.929688 353.183594 2.683594 353.105469 2.441406 353.007812 C 2.203125 352.90625 1.976562 352.785156 1.757812 352.640625 C 1.542969 352.496094 1.34375 352.332031 1.160156 352.148438 C 0.976562 351.964844 0.8125 351.765625 0.667969 351.550781 C 0.523438 351.332031 0.402344 351.105469 0.300781 350.867188 C 0.203125 350.625 0.125 350.378906 0.0742188 350.125 C 0.0234375 349.867188 0 349.609375 0 349.351562 L 0 236.859375 C 0 236.597656 0.0234375 236.339844 0.0742188 236.085938 C 0.125 235.832031 0.203125 235.582031 0.300781 235.34375 C 0.402344 235.105469 0.523438 234.875 0.667969 234.660156 C 0.8125 234.445312 0.976562 234.242188 1.160156 234.058594 C 1.34375 233.875 1.542969 233.710938 1.757812 233.566406 C 1.976562 233.421875 2.203125 233.300781 2.441406 233.203125 C 2.683594 233.101562 2.929688 233.027344 3.183594 232.976562 C 3.441406 232.925781 3.699219 232.902344 3.957031 232.902344 Z M 3.957031 232.902344 " fill-opacity="1" fill-rule="nonzero"/></g><g clip-path="url(#b1088927ac)"><path fill="#7bacfc" d="M 53.925781 174.675781 L 95.480469 174.675781 C 95.742188 174.675781 96 174.699219 96.253906 174.75 C 96.507812 174.800781 96.757812 174.878906 96.996094 174.976562 C 97.238281 175.078125 97.464844 175.199219 97.679688 175.34375 C 97.898438 175.488281 98.097656 175.652344 98.28125 175.835938 C 98.464844 176.019531 98.628906 176.21875 98.773438 176.433594 C 98.917969 176.652344 99.039062 176.878906 99.136719 177.117188 C 99.238281 177.359375 99.3125 177.605469 99.363281 177.859375 C 99.414062 178.117188 99.441406 178.375 99.441406 178.632812 L 99.441406 349.351562 C 99.441406 349.609375 99.414062 349.867188 99.363281 350.125 C 99.3125 350.378906 99.238281 350.625 99.136719 350.867188 C 99.039062 351.105469 98.917969 351.332031 98.773438 351.550781 C 98.628906 351.765625 98.464844 351.964844 98.28125 352.148438 C 98.097656 352.332031 97.898438 352.496094 97.679688 352.640625 C 97.464844 352.785156 97.238281 352.90625 96.996094 353.007812 C 96.757812 353.105469 96.507812 353.183594 96.253906 353.234375 C 96 353.285156 95.742188 353.308594 95.480469 353.308594 L 53.925781 353.308594 C 53.667969 353.308594 53.410156 353.285156 53.15625 353.234375 C 52.902344 353.183594 52.652344 353.105469 52.414062 353.007812 C 52.171875 352.90625 51.945312 352.785156 51.730469 352.640625 C 51.511719 352.496094 51.3125 352.332031 51.128906 352.148438 C 50.945312 351.964844 50.78125 351.765625 50.636719 351.550781 C 50.492188 351.332031 50.371094 351.105469 50.269531 350.867188 C 50.171875 350.625 50.097656 350.378906 50.046875 350.125 C 49.996094 349.867188 49.96875 349.609375 49.96875 349.351562 L 49.96875 178.632812 C 49.96875 178.375 49.996094 178.117188 50.046875 177.859375 C 50.097656 177.605469 50.171875 177.359375 50.269531 177.117188 C 50.371094 176.878906 50.492188 176.652344 50.636719 176.433594 C 50.78125 176.21875 50.945312 176.019531 51.128906 175.835938 C 51.3125 175.652344 51.511719 175.488281 51.730469 175.34375 C 51.945312 175.199219 52.171875 175.078125 52.414062 174.976562 C 52.652344 174.878906 52.902344 174.800781 53.15625 174.75 C 53.410156 174.699219 53.667969 174.675781 53.925781 174.675781 Z M 53.925781 174.675781 " fill-opacity="1" fill-rule="nonzero"/></g><g clip-path="url(#2e9ffef964)"><path fill="#7bacfc" d="M 103.898438 58.226562 L 145.453125 58.226562 C 145.710938 58.226562 145.96875 58.25 146.222656 58.300781 C 146.480469 58.351562 146.726562 58.425781 146.964844 58.527344 C 147.207031 58.625 147.433594 58.746094 147.652344 58.890625 C 147.867188 59.035156 148.066406 59.199219 148.25 59.382812 C 148.433594 59.566406 148.597656 59.769531 148.742188 59.984375 C 148.886719 60.199219 149.007812 60.429688 149.109375 60.667969 C 149.207031 60.910156 149.28125 61.15625 149.332031 61.410156 C 149.382812 61.664062 149.410156 61.921875 149.410156 62.183594 L 149.410156 349.351562 C 149.410156 349.609375 149.382812 349.867188 149.332031 350.125 C 149.28125 350.378906 149.207031 350.625 149.109375 350.867188 C 149.007812 351.105469 148.886719 351.332031 148.742188 351.550781 C 148.597656 351.765625 148.433594 351.964844 148.25 352.148438 C 148.066406 352.332031 147.867188 352.496094 147.652344 352.640625 C 147.433594 352.785156 147.207031 352.90625 146.964844 353.007812 C 146.726562 353.105469 146.480469 353.183594 146.222656 353.234375 C 145.96875 353.285156 145.710938 353.308594 145.453125 353.308594 L 103.898438 353.308594 C 103.636719 353.308594 103.378906 353.285156 103.125 353.234375 C 102.871094 353.183594 102.621094 353.105469 102.382812 353.007812 C 102.140625 352.90625 101.914062 352.785156 101.699219 352.640625 C 101.480469 352.496094 101.28125 352.332031 101.097656 352.148438 C 100.914062 351.964844 100.75 351.765625 100.605469 351.550781 C 100.460938 351.332031 100.339844 351.105469 100.242188 350.867188 C 100.140625 350.625 100.066406 350.378906 100.015625 350.125 C 99.964844 349.867188 99.941406 349.609375 99.941406 349.351562 L 99.941406 62.183594 C 99.941406 61.921875 99.964844 61.664062 100.015625 61.410156 C 100.066406 61.15625 100.140625 60.910156 100.242188 60.667969 C 100.339844 60.429688 100.460938 60.199219 100.605469 59.984375 C 100.75 59.769531 100.914062 59.566406 101.097656 59.382812 C 101.28125 59.199219 101.480469 59.035156 101.699219 58.890625 C 101.914062 58.746094 102.140625 58.625 102.382812 58.527344 C 102.621094 58.425781 102.871094 58.351562 103.125 58.300781 C 103.378906 58.25 103.636719 58.226562 103.898438 58.226562 Z M 103.898438 58.226562 " fill-opacity="1" fill-rule="nonzero"/></g><g clip-path="url(#268dd6bc62)"><path fill="#7bacfc" d="M 153.867188 0 L 195.421875 0 C 195.683594 0 195.9375 0.0234375 196.195312 0.0742188 C 196.449219 0.125 196.695312 0.203125 196.9375 0.300781 C 197.175781 0.402344 197.40625 0.523438 197.621094 0.667969 C 197.835938 0.8125 198.035156 0.976562 198.21875 1.160156 C 198.402344 1.34375 198.566406 1.542969 198.710938 1.757812 C 198.855469 1.976562 198.980469 2.203125 199.078125 2.441406 C 199.175781 2.683594 199.253906 2.929688 199.304688 3.183594 C 199.355469 3.441406 199.378906 3.699219 199.378906 3.957031 L 199.378906 349.351562 C 199.378906 349.609375 199.355469 349.867188 199.304688 350.125 C 199.253906 350.378906 199.175781 350.625 199.078125 350.867188 C 198.980469 351.105469 198.855469 351.332031 198.710938 351.550781 C 198.566406 351.765625 198.402344 351.964844 198.21875 352.148438 C 198.035156 352.332031 197.835938 352.496094 197.621094 352.640625 C 197.40625 352.785156 197.175781 352.90625 196.9375 353.007812 C 196.695312 353.105469 196.449219 353.183594 196.195312 353.234375 C 195.9375 353.285156 195.683594 353.308594 195.421875 353.308594 L 153.867188 353.308594 C 153.605469 353.308594 153.351562 353.285156 153.09375 353.234375 C 152.839844 353.183594 152.59375 353.105469 152.351562 353.007812 C 152.113281 352.90625 151.882812 352.785156 151.667969 352.640625 C 151.453125 352.496094 151.253906 352.332031 151.070312 352.148438 C 150.882812 351.964844 150.71875 351.765625 150.578125 351.550781 C 150.433594 351.332031 150.308594 351.105469 150.210938 350.867188 C 150.109375 350.625 150.035156 350.378906 149.984375 350.125 C 149.933594 349.867188 149.910156 349.609375 149.910156 349.351562 L 149.910156 3.957031 C 149.910156 3.699219 149.933594 3.441406 149.984375 3.183594 C 150.035156 2.929688 150.109375 2.683594 150.210938 2.441406 C 150.308594 2.203125 150.433594 1.976562 150.578125 1.757812 C 150.71875 1.542969 150.882812 1.34375 151.070312 1.160156 C 151.253906 0.976562 151.453125 0.8125 151.667969 0.667969 C 151.882812 0.523438 152.113281 0.402344 152.351562 0.300781 C 152.59375 0.203125 152.839844 0.125 153.09375 0.0742188 C 153.351562 0.0234375 153.605469 0 153.867188 0 Z M 153.867188 0 " fill-opacity="1" fill-rule="nonzero"/></g><g clip-path="url(#f586a22632)"><path fill="#7bacfc" d="M 203.835938 116.449219 L 245.390625 116.449219 C 245.652344 116.449219 245.910156 116.476562 246.164062 116.527344 C 246.417969 116.578125 246.664062 116.652344 246.90625 116.75 C 247.144531 116.851562 247.375 116.972656 247.589844 117.117188 C 247.804688 117.261719 248.007812 117.425781 248.191406 117.609375 C 248.375 117.792969 248.539062 117.992188 248.683594 118.210938 C 248.828125 118.425781 248.949219 118.652344 249.046875 118.894531 C 249.148438 119.132812 249.222656 119.382812 249.273438 119.636719 C 249.324219 119.890625 249.347656 120.148438 249.347656 120.40625 L 249.347656 349.351562 C 249.347656 349.609375 249.324219 349.867188 249.273438 350.125 C 249.222656 350.378906 249.148438 350.625 249.046875 350.867188 C 248.949219 351.105469 248.828125 351.332031 248.683594 351.550781 C 248.539062 351.765625 248.375 351.964844 248.191406 352.148438 C 248.007812 352.332031 247.804688 352.496094 247.589844 352.640625 C 247.375 352.785156 247.144531 352.90625 246.90625 353.007812 C 246.664062 353.105469 246.417969 353.183594 246.164062 353.234375 C 245.910156 353.285156 245.652344 353.308594 245.390625 353.308594 L 203.835938 353.308594 C 203.578125 353.308594 203.320312 353.285156 203.066406 353.234375 C 202.808594 353.183594 202.5625 353.105469 202.320312 353.007812 C 202.082031 352.90625 201.855469 352.785156 201.636719 352.640625 C 201.421875 352.496094 201.222656 352.332031 201.039062 352.148438 C 200.855469 351.964844 200.691406 351.765625 200.546875 351.550781 C 200.402344 351.332031 200.28125 351.105469 200.179688 350.867188 C 200.082031 350.625 200.003906 350.378906 199.957031 350.125 C 199.90625 349.867188 199.878906 349.609375 199.878906 349.351562 L 199.878906 120.40625 C 199.878906 120.148438 199.90625 119.890625 199.957031 119.636719 C 200.003906 119.382812 200.082031 119.132812 200.179688 118.894531 C 200.28125 118.652344 200.402344 118.425781 200.546875 118.210938 C 200.691406 117.992188 200.855469 117.792969 201.039062 117.609375 C 201.222656 117.425781 201.421875 117.261719 201.636719 117.117188 C 201.855469 116.972656 202.082031 116.851562 202.320312 116.75 C 202.5625 116.652344 202.808594 116.578125 203.066406 116.527344 C 203.320312 116.476562 203.578125 116.449219 203.835938 116.449219 Z M 203.835938 116.449219 " fill-opacity="1" fill-rule="nonzero"/></g><g clip-path="url(#2794b0c553)"><path fill="#7bacfc" d="M 253.804688 174.675781 L 295.363281 174.675781 C 295.621094 174.675781 295.878906 174.699219 296.132812 174.75 C 296.386719 174.800781 296.636719 174.878906 296.875 174.976562 C 297.117188 175.078125 297.34375 175.199219 297.558594 175.34375 C 297.777344 175.488281 297.976562 175.652344 298.160156 175.835938 C 298.34375 176.019531 298.507812 176.21875 298.652344 176.433594 C 298.796875 176.652344 298.917969 176.878906 299.019531 177.117188 C 299.117188 177.359375 299.191406 177.605469 299.242188 177.859375 C 299.292969 178.117188 299.320312 178.375 299.320312 178.632812 L 299.320312 349.351562 C 299.320312 349.609375 299.292969 349.867188 299.242188 350.125 C 299.191406 350.378906 299.117188 350.625 299.019531 350.867188 C 298.917969 351.105469 298.796875 351.332031 298.652344 351.550781 C 298.507812 351.765625 298.34375 351.964844 298.160156 352.148438 C 297.976562 352.332031 297.777344 352.496094 297.558594 352.640625 C 297.34375 352.785156 297.117188 352.90625 296.875 353.007812 C 296.636719 353.105469 296.386719 353.183594 296.132812 353.234375 C 295.878906 353.285156 295.621094 353.308594 295.363281 353.308594 L 253.804688 353.308594 C 253.546875 353.308594 253.289062 353.285156 253.035156 353.234375 C 252.78125 353.183594 252.53125 353.105469 252.292969 353.007812 C 252.050781 352.90625 251.824219 352.785156 251.609375 352.640625 C 251.390625 352.496094 251.191406 352.332031 251.007812 352.148438 C 250.824219 351.964844 250.660156 351.765625 250.515625 351.550781 C 250.371094 351.332031 250.25 351.105469 250.148438 350.867188 C 250.050781 350.625 249.976562 350.378906 249.925781 350.125 C 249.875 349.867188 249.847656 349.609375 249.847656 349.351562 L 249.847656 178.632812 C 249.847656 178.375 249.875 178.117188 249.925781 177.859375 C 249.976562 177.605469 250.050781 177.359375 250.148438 177.117188 C 250.25 176.878906 250.371094 176.652344 250.515625 176.433594 C 250.660156 176.21875 250.824219 176.019531 251.007812 175.835938 C 251.191406 175.652344 251.390625 175.488281 251.609375 175.34375 C 251.824219 175.199219 252.050781 175.078125 252.292969 174.976562 C 252.53125 174.878906 252.78125 174.800781 253.035156 174.75 C 253.289062 174.699219 253.546875 174.675781 253.804688 174.675781 Z M 253.804688 174.675781 " fill-opacity="1" fill-rule="nonzero"/></g><g clip-path="url(#4deaee9b35)"><path fill="#7bacfc" d="M 303.777344 232.902344 L 345.332031 232.902344 C 345.589844 232.902344 345.847656 232.925781 346.101562 232.976562 C 346.359375 233.027344 346.605469 233.101562 346.84375 233.203125 C 347.085938 233.300781 347.3125 233.421875 347.53125 233.566406 C 347.746094 233.710938 347.945312 233.875 348.128906 234.058594 C 348.3125 234.242188 348.476562 234.445312 348.621094 234.660156 C 348.765625 234.875 348.886719 235.105469 348.988281 235.34375 C 349.085938 235.582031 349.160156 235.832031 349.210938 236.085938 C 349.261719 236.339844 349.289062 236.597656 349.289062 236.859375 L 349.289062 349.351562 C 349.289062 349.609375 349.261719 349.867188 349.210938 350.125 C 349.160156 350.378906 349.085938 350.625 348.988281 350.867188 C 348.886719 351.105469 348.765625 351.332031 348.621094 351.550781 C 348.476562 351.765625 348.3125 351.964844 348.128906 352.148438 C 347.945312 352.332031 347.746094 352.496094 347.53125 352.640625 C 347.3125 352.785156 347.085938 352.90625 346.84375 353.007812 C 346.605469 353.105469 346.359375 353.183594 346.101562 353.234375 C 345.847656 353.285156 345.589844 353.308594 345.332031 353.308594 L 303.777344 353.308594 C 303.515625 353.308594 303.257812 353.285156 303.003906 353.234375 C 302.75 353.183594 302.5 353.105469 302.261719 353.007812 C 302.023438 352.90625 301.792969 352.785156 301.578125 352.640625 C 301.363281 352.496094 301.160156 352.332031 300.976562 352.148438 C 300.792969 351.964844 300.628906 351.765625 300.484375 351.550781 C 300.339844 351.332031 300.21875 351.105469 300.121094 350.867188 C 300.019531 350.625 299.945312 350.378906 299.894531 350.125 C 299.84375 349.867188 299.820312 349.609375 299.820312 349.351562 L 299.820312 236.859375 C 299.820312 236.597656 299.84375 236.339844 299.894531 236.085938 C 299.945312 235.832031 300.019531 235.582031 300.121094 235.34375 C 300.21875 235.105469 300.339844 234.875 300.484375 234.660156 C 300.628906 234.445312 300.792969 234.242188 300.976562 234.058594 C 301.160156 233.875 301.363281 233.710938 301.578125 233.566406 C 301.792969 233.421875 302.023438 233.300781 302.261719 233.203125 C 302.5 233.101562 302.75 233.027344 303.003906 232.976562 C 303.257812 232.925781 303.515625 232.902344 303.777344 232.902344 Z M 303.777344 232.902344 " fill-opacity="1" fill-rule="nonzero"/></g></svg>