<svg version="1.0" preserveAspectRatio="xMidYMid meet" viewBox="181.2 10.799999982 597.6 583.199999028" zoomAndPan="magnify" xmlns:xlink="http://www.w3.org/1999/xlink" xmlns="http://www.w3.org/2000/svg" style="max-height: 500px" width="597.6" height="583.199999028"><defs><clipPath id="48230575d2"><path clip-rule="nonzero" d="M 229 20.382812 L 731 20.382812 L 731 503 L 229 503 Z M 229 20.382812"/></clipPath><clipPath id="d797524fdf"><path clip-rule="nonzero" d="M 190.613281 560 L 769.613281 560 L 769.613281 579.882812 L 190.613281 579.882812 Z M 190.613281 560"/></clipPath></defs><g clip-path="url(#48230575d2)"><path fill-rule="nonzero" fill-opacity="1" d="M 376.949219 289.675781 C 379.097656 290.054688 381.320312 290.355469 383.578125 290.355469 C 397.929688 290.355469 410.320312 282.40625 416.949219 270.769531 L 485.722656 289.261719 L 445.460938 384.890625 L 345.988281 357.773438 Z M 383.578125 232.503906 C 394.199219 232.503906 402.863281 241.164062 402.863281 251.789062 C 402.863281 262.410156 394.199219 271.070312 383.578125 271.070312 C 372.957031 271.070312 364.292969 262.410156 364.292969 251.789062 C 364.292969 241.164062 372.957031 232.503906 383.578125 232.503906 Z M 535.210938 221.390625 L 652.648438 192.050781 L 632.910156 280.863281 C 619.164062 281.351562 607.339844 289.035156 600.898438 300.296875 L 512.085938 276.382812 Z M 653.550781 319.28125 C 653.550781 329.902344 644.890625 338.5625 634.269531 338.5625 C 623.648438 338.5625 614.984375 329.902344 614.984375 319.28125 C 614.984375 308.660156 623.648438 299.996094 634.269531 299.996094 C 644.890625 299.996094 653.550781 308.660156 653.550781 319.28125 Z M 672.835938 58.949219 C 672.835938 48.328125 681.5 39.664062 692.121094 39.664062 C 702.742188 39.664062 711.402344 48.328125 711.402344 58.949219 C 711.402344 69.570312 702.742188 78.234375 692.121094 78.234375 C 681.5 78.234375 672.835938 69.570312 672.835938 58.949219 Z M 287.160156 483.191406 C 276.539062 483.191406 267.875 474.53125 267.875 463.910156 C 267.875 453.289062 276.539062 444.625 287.160156 444.625 C 297.78125 444.625 306.441406 453.289062 306.441406 463.910156 C 306.441406 474.53125 297.78125 483.191406 287.160156 483.191406 Z M 241.472656 329.261719 C 236.390625 327.867188 231.039062 330.882812 229.648438 336.039062 C 228.253906 341.164062 231.265625 346.472656 236.425781 347.867188 L 319.058594 370.390625 L 293.789062 426.019531 C 291.640625 425.644531 289.417969 425.339844 287.160156 425.339844 C 265.878906 425.339844 248.589844 442.628906 248.589844 463.910156 C 248.589844 485.1875 265.878906 502.476562 287.160156 502.476562 C 308.4375 502.476562 325.726562 485.1875 325.726562 463.910156 C 325.726562 451.820312 320.039062 441.160156 311.300781 434.078125 L 337.929688 375.550781 L 448.546875 405.71875 C 449.375 405.945312 450.242188 406.058594 451.070312 406.058594 C 454.875 406.058594 458.417969 403.796875 459.960938 400.144531 L 504.515625 294.347656 L 595.738281 318.902344 C 595.738281 319.015625 595.699219 319.128906 595.699219 319.28125 C 595.699219 340.558594 612.988281 357.847656 634.269531 357.847656 C 655.546875 357.847656 672.835938 340.558594 672.835938 319.28125 C 672.835938 304.328125 664.210938 291.484375 651.742188 285.082031 L 673.589844 186.816406 L 723.378906 174.351562 C 728.539062 173.070312 731.703125 167.835938 730.386719 162.675781 C 729.105469 157.476562 723.832031 154.351562 718.710938 155.667969 L 678.257812 165.761719 L 693.476562 97.367188 C 714.113281 96.652344 730.6875 79.738281 730.6875 58.949219 C 730.6875 37.667969 713.398438 20.382812 692.121094 20.382812 C 670.839844 20.382812 653.550781 37.667969 653.550781 58.949219 C 653.550781 73.902344 662.175781 86.746094 674.644531 93.148438 L 657.355469 171 L 525.871094 203.878906 C 522.933594 204.59375 520.484375 206.703125 519.316406 209.492188 L 493.292969 271.335938 L 422.109375 252.164062 C 422.109375 252.050781 422.144531 251.9375 422.144531 251.789062 C 422.144531 230.507812 404.859375 213.21875 383.578125 213.21875 C 362.296875 213.21875 345.011719 230.507812 345.011719 251.789062 C 345.011719 263.878906 350.699219 274.535156 359.4375 281.617188 L 327.15625 352.613281 L 241.472656 329.261719" fill="#7bacfc"/></g><g clip-path="url(#d797524fdf)"><path fill-rule="nonzero" fill-opacity="1" d="M 759.613281 560.328125 L 200.382812 560.328125 C 195.070312 560.328125 190.742188 564.660156 190.742188 569.96875 C 190.742188 575.28125 195.070312 579.613281 200.382812 579.613281 L 759.613281 579.613281 C 764.921875 579.613281 769.253906 575.28125 769.253906 569.96875 C 769.253906 564.660156 764.921875 560.328125 759.613281 560.328125" fill="#7bacfc"/></g></svg>