<svg viewBox="338.88 163.2 286.56 270.72" version="1.0" preserveAspectRatio="xMidYMid meet" zoomAndPan="magnify" xmlns:xlink="http://www.w3.org/1999/xlink" xmlns="http://www.w3.org/2000/svg" style="max-height: 500px" width="286.56" height="270.72"><defs><clipPath id="0d60b075de"><path clip-rule="nonzero" d="M 343 169 L 618.851562 169 L 618.851562 431.660156 L 343 431.660156 Z M 343 169"/></clipPath></defs><rect fill-opacity="0" height="719.999999" y="-60" fill="#ffffff" width="1152" x="-96"/><rect fill-opacity="0" height="719.999999" y="-60" fill="#ffffff" width="1152" x="-96"/><g clip-path="url(#0d60b075de)"><path fill-rule="nonzero" fill-opacity="1" d="M 597.085938 198.101562 L 576.859375 198.101562 C 573.996094 196.425781 570.925781 195.332031 567.648438 194.824219 L 554.304688 192.832031 L 554.304688 186.515625 C 554.304688 185.695312 554.226562 184.882812 554.066406 184.078125 C 553.90625 183.277344 553.667969 182.496094 553.355469 181.738281 C 553.042969 180.980469 552.65625 180.261719 552.203125 179.578125 C 551.746094 178.898438 551.226562 178.265625 550.648438 177.6875 C 550.070312 177.105469 549.4375 176.589844 548.757812 176.132812 C 548.074219 175.679688 547.355469 175.292969 546.597656 174.980469 C 545.839844 174.664062 545.058594 174.429688 544.253906 174.269531 C 543.449219 174.109375 542.636719 174.027344 541.816406 174.027344 L 526.007812 174.027344 C 525.1875 174.027344 524.375 174.109375 523.570312 174.269531 C 522.765625 174.429688 521.984375 174.664062 521.226562 174.980469 C 520.472656 175.292969 519.75 175.675781 519.070312 176.132812 C 518.386719 176.589844 517.757812 177.105469 517.175781 177.6875 C 516.597656 178.265625 516.078125 178.898438 515.625 179.578125 C 515.167969 180.261719 514.785156 180.980469 514.46875 181.738281 C 514.15625 182.496094 513.917969 183.277344 513.757812 184.078125 C 513.597656 184.882812 513.519531 185.695312 513.519531 186.515625 L 399.800781 169.707031 C 398.96875 169.582031 398.132812 169.492188 397.292969 169.449219 C 396.453125 169.402344 395.613281 169.398438 394.769531 169.4375 C 393.929688 169.472656 393.09375 169.554688 392.257812 169.671875 C 391.425781 169.792969 390.601562 169.953125 389.78125 170.15625 C 388.964844 170.355469 388.160156 170.597656 387.367188 170.878906 C 386.570312 171.160156 385.792969 171.476562 385.03125 171.835938 C 384.269531 172.191406 383.527344 172.585938 382.804688 173.015625 C 382.078125 173.445312 381.378906 173.910156 380.699219 174.410156 C 380.023438 174.910156 379.371094 175.441406 378.746094 176.007812 C 378.121094 176.570312 377.523438 177.164062 376.957031 177.785156 C 376.390625 178.40625 375.855469 179.054688 375.351562 179.730469 C 374.851562 180.40625 374.382812 181.105469 373.945312 181.824219 C 373.511719 182.546875 373.113281 183.289062 372.753906 184.046875 C 372.390625 184.808594 372.070312 185.585938 371.785156 186.378906 C 371.5 187.167969 371.253906 187.972656 371.050781 188.789062 C 370.84375 189.605469 370.679688 190.433594 370.554688 191.265625 L 343.539062 371.21875 C 343.414062 372.050781 343.328125 372.890625 343.285156 373.730469 C 343.246094 374.574219 343.242188 375.417969 343.28125 376.257812 C 343.324219 377.101562 343.402344 377.9375 343.527344 378.773438 C 343.648438 379.609375 343.8125 380.433594 344.015625 381.253906 C 344.21875 382.070312 344.460938 382.878906 344.742188 383.671875 C 345.023438 384.46875 345.34375 385.246094 345.703125 386.011719 C 346.0625 386.773438 346.457031 387.515625 346.886719 388.242188 C 347.316406 388.964844 347.785156 389.667969 348.285156 390.347656 C 348.785156 391.027344 349.316406 391.679688 349.878906 392.308594 C 350.441406 392.933594 351.035156 393.53125 351.660156 394.101562 C 352.28125 394.667969 352.929688 395.207031 353.605469 395.710938 C 354.28125 396.21875 354.980469 396.6875 355.699219 397.125 C 356.421875 397.5625 357.164062 397.964844 357.921875 398.328125 C 358.683594 398.691406 359.460938 399.019531 360.253906 399.304688 C 361.042969 399.59375 361.847656 399.84375 362.667969 400.054688 C 363.484375 400.261719 364.308594 400.433594 365.140625 400.5625 L 397.476562 405.308594 L 397.476562 410.058594 C 397.476562 410.765625 397.515625 411.472656 397.585938 412.179688 C 397.65625 412.882812 397.761719 413.582031 397.902344 414.277344 C 398.042969 414.972656 398.21875 415.660156 398.425781 416.339844 C 398.632812 417.015625 398.875 417.679688 399.148438 418.335938 C 399.421875 418.988281 399.726562 419.628906 400.066406 420.253906 C 400.402344 420.875 400.769531 421.480469 401.164062 422.070312 C 401.5625 422.65625 401.984375 423.222656 402.4375 423.769531 C 402.890625 424.316406 403.371094 424.835938 403.875 425.335938 C 404.378906 425.835938 404.90625 426.308594 405.457031 426.753906 C 406.007812 427.199219 406.578125 427.617188 407.167969 428.007812 C 407.761719 428.398438 408.371094 428.757812 409 429.089844 C 409.625 429.417969 410.269531 429.71875 410.925781 429.984375 C 411.582031 430.25 412.25 430.484375 412.929688 430.683594 C 413.609375 430.886719 414.300781 431.050781 414.996094 431.183594 C 415.691406 431.316406 416.394531 431.417969 417.101562 431.480469 C 417.804688 431.542969 418.511719 431.570312 419.222656 431.566406 L 597.277344 431.566406 C 597.976562 431.558594 598.675781 431.515625 599.375 431.441406 C 600.070312 431.363281 600.765625 431.253906 601.453125 431.113281 C 602.136719 430.96875 602.816406 430.792969 603.484375 430.582031 C 604.15625 430.375 604.8125 430.132812 605.460938 429.859375 C 606.105469 429.585938 606.738281 429.28125 607.355469 428.945312 C 607.96875 428.609375 608.570312 428.246094 609.148438 427.851562 C 609.730469 427.460938 610.292969 427.039062 610.832031 426.589844 C 611.371094 426.144531 611.886719 425.671875 612.382812 425.171875 C 612.875 424.671875 613.34375 424.152344 613.789062 423.609375 C 614.230469 423.0625 614.648438 422.5 615.035156 421.914062 C 615.421875 421.332031 615.78125 420.730469 616.113281 420.109375 C 616.441406 419.492188 616.738281 418.855469 617.007812 418.207031 C 617.273438 417.558594 617.511719 416.898438 617.714844 416.226562 C 617.917969 415.554688 618.089844 414.875 618.226562 414.1875 C 618.363281 413.5 618.464844 412.808594 618.535156 412.109375 C 618.605469 411.410156 618.640625 410.710938 618.640625 410.007812 L 618.640625 219.753906 C 618.644531 219.046875 618.609375 218.339844 618.542969 217.636719 C 618.476562 216.929688 618.375 216.230469 618.238281 215.539062 C 618.101562 214.84375 617.929688 214.15625 617.726562 213.480469 C 617.523438 212.800781 617.285156 212.136719 617.015625 211.480469 C 616.746094 210.828125 616.445312 210.1875 616.113281 209.5625 C 615.78125 208.9375 615.417969 208.332031 615.027344 207.742188 C 614.636719 207.152344 614.214844 206.585938 613.769531 206.035156 C 613.320312 205.488281 612.847656 204.964844 612.347656 204.460938 C 611.847656 203.960938 611.328125 203.484375 610.78125 203.035156 C 610.234375 202.585938 609.667969 202.164062 609.082031 201.769531 C 608.492188 201.375 607.886719 201.011719 607.265625 200.675781 C 606.640625 200.339844 606.003906 200.035156 605.351562 199.765625 C 604.695312 199.492188 604.03125 199.253906 603.355469 199.046875 C 602.679688 198.839844 601.992188 198.664062 601.300781 198.527344 C 600.605469 198.386719 599.90625 198.28125 599.203125 198.210938 C 598.5 198.140625 597.792969 198.101562 597.085938 198.101562 Z M 522.730469 186.515625 C 522.730469 186.078125 522.8125 185.660156 522.980469 185.253906 C 523.144531 184.851562 523.382812 184.492188 523.6875 184.183594 C 523.992188 183.871094 524.347656 183.628906 524.75 183.460938 C 525.152344 183.289062 525.570312 183.199219 526.007812 183.191406 L 541.816406 183.191406 C 542.257812 183.199219 542.679688 183.289062 543.082031 183.457031 C 543.488281 183.628906 543.84375 183.871094 544.15625 184.179688 C 544.464844 184.488281 544.707031 184.847656 544.875 185.25 C 545.046875 185.65625 545.136719 186.078125 545.140625 186.515625 L 545.140625 191.265625 L 522.730469 187.941406 Z M 397.476562 219.753906 L 397.476562 396.097656 L 366.519531 391.347656 C 365.980469 391.265625 365.445312 391.160156 364.917969 391.023438 C 364.386719 390.890625 363.867188 390.726562 363.355469 390.542969 C 362.84375 390.355469 362.339844 390.144531 361.847656 389.910156 C 361.355469 389.671875 360.875 389.414062 360.410156 389.132812 C 359.945312 388.847656 359.492188 388.542969 359.054688 388.214844 C 358.621094 387.890625 358.199219 387.542969 357.796875 387.171875 C 357.394531 386.804688 357.011719 386.417969 356.648438 386.011719 C 356.285156 385.605469 355.941406 385.179688 355.621094 384.742188 C 355.296875 384.300781 354.996094 383.847656 354.71875 383.378906 C 354.441406 382.90625 354.1875 382.425781 353.957031 381.929688 C 353.726562 381.4375 353.523438 380.929688 353.34375 380.417969 C 353.160156 379.902344 353.007812 379.378906 352.878906 378.847656 C 352.75 378.320312 352.648438 377.785156 352.570312 377.246094 C 352.496094 376.703125 352.445312 376.160156 352.421875 375.617188 C 352.398438 375.070312 352.402344 374.527344 352.433594 373.980469 C 352.464844 373.4375 352.523438 372.894531 352.605469 372.355469 L 379.625 192.402344 C 379.949219 190.285156 380.660156 188.304688 381.761719 186.464844 C 382.863281 184.621094 384.273438 183.058594 385.984375 181.769531 C 387.75 180.457031 389.695312 179.542969 391.832031 179.023438 C 393.964844 178.507812 396.117188 178.421875 398.28125 178.777344 L 527.480469 198.101562 L 419.222656 198.101562 C 418.511719 198.09375 417.800781 198.125 417.089844 198.1875 C 416.382812 198.253906 415.675781 198.351562 414.976562 198.484375 C 414.277344 198.621094 413.589844 198.789062 412.90625 198.988281 C 412.222656 199.191406 411.550781 199.425781 410.894531 199.695312 C 410.234375 199.964844 409.589844 200.265625 408.960938 200.597656 C 408.332031 200.929688 407.71875 201.292969 407.125 201.6875 C 406.53125 202.082031 405.960938 202.503906 405.40625 202.953125 C 404.855469 203.402344 404.328125 203.878906 403.824219 204.382812 C 403.320312 204.882812 402.839844 205.410156 402.386719 205.960938 C 401.933594 206.507812 401.511719 207.078125 401.113281 207.671875 C 400.71875 208.261719 400.355469 208.875 400.019531 209.5 C 399.683594 210.128906 399.378906 210.773438 399.105469 211.429688 C 398.835938 212.089844 398.597656 212.757812 398.390625 213.441406 C 398.1875 214.121094 398.015625 214.8125 397.878906 215.511719 C 397.742188 216.210938 397.640625 216.914062 397.570312 217.621094 C 397.503906 218.332031 397.472656 219.039062 397.476562 219.753906 Z M 609.480469 410.007812 C 609.476562 410.820312 609.394531 411.625 609.234375 412.421875 C 609.070312 413.214844 608.835938 413.988281 608.523438 414.738281 C 608.210938 415.484375 607.828125 416.199219 607.375 416.871094 C 606.921875 417.546875 606.40625 418.167969 605.832031 418.742188 C 605.257812 419.3125 604.632812 419.824219 603.957031 420.277344 C 603.28125 420.726562 602.566406 421.105469 601.816406 421.414062 C 601.066406 421.726562 600.292969 421.960938 599.496094 422.117188 C 598.703125 422.277344 597.898438 422.355469 597.085938 422.355469 L 419.222656 422.355469 C 418.410156 422.355469 417.605469 422.277344 416.808594 422.117188 C 416.015625 421.960938 415.242188 421.726562 414.492188 421.414062 C 413.742188 421.105469 413.027344 420.726562 412.351562 420.277344 C 411.675781 419.824219 411.050781 419.3125 410.476562 418.742188 C 409.902344 418.167969 409.386719 417.546875 408.933594 416.871094 C 408.480469 416.199219 408.097656 415.484375 407.785156 414.738281 C 407.472656 413.988281 407.238281 413.214844 407.074219 412.421875 C 406.914062 411.625 406.832031 410.820312 406.828125 410.007812 L 406.828125 219.753906 C 406.828125 218.9375 406.902344 218.128906 407.058594 217.328125 C 407.214844 216.527344 407.449219 215.75 407.757812 214.996094 C 408.070312 214.242188 408.449219 213.523438 408.902344 212.84375 C 409.351562 212.164062 409.867188 211.539062 410.441406 210.960938 C 411.019531 210.382812 411.644531 209.867188 412.324219 209.410156 C 413 208.957031 413.714844 208.574219 414.46875 208.261719 C 415.222656 207.949219 416 207.710938 416.796875 207.550781 C 417.597656 207.394531 418.40625 207.3125 419.222656 207.3125 L 545.140625 207.3125 L 545.140625 241.355469 C 545.140625 241.796875 545.058594 242.222656 544.890625 242.628906 C 544.71875 243.035156 544.480469 243.394531 544.167969 243.707031 C 543.855469 244.019531 543.496094 244.257812 543.089844 244.425781 C 542.683594 244.597656 542.257812 244.679688 541.816406 244.679688 C 541.378906 244.679688 540.953125 244.597656 540.546875 244.425781 C 540.140625 244.257812 539.78125 244.019531 539.46875 243.707031 C 539.15625 243.394531 538.917969 243.035156 538.746094 242.628906 C 538.578125 242.222656 538.496094 241.796875 538.496094 241.355469 L 538.496094 218.660156 C 538.589844 218.308594 538.644531 217.949219 538.65625 217.585938 C 538.671875 217.222656 538.640625 216.859375 538.570312 216.5 C 538.5 216.144531 538.390625 215.796875 538.242188 215.464844 C 538.09375 215.132812 537.90625 214.820312 537.683594 214.53125 C 537.464844 214.242188 537.210938 213.980469 536.929688 213.75 C 536.648438 213.515625 536.34375 213.320312 536.015625 213.160156 C 535.6875 212.996094 535.347656 212.875 534.992188 212.792969 C 534.636719 212.710938 534.277344 212.667969 533.914062 212.667969 C 533.546875 212.667969 533.1875 212.710938 532.832031 212.792969 C 532.476562 212.875 532.136719 212.996094 531.808594 213.160156 C 531.480469 213.320312 531.175781 213.515625 530.894531 213.75 C 530.613281 213.980469 530.363281 214.242188 530.140625 214.53125 C 529.917969 214.820312 529.734375 215.132812 529.582031 215.464844 C 529.433594 215.796875 529.324219 216.144531 529.253906 216.5 C 529.183594 216.859375 529.15625 217.222656 529.167969 217.585938 C 529.179688 217.949219 529.234375 218.308594 529.332031 218.660156 L 529.332031 241.355469 C 529.332031 242.175781 529.410156 242.988281 529.570312 243.792969 C 529.730469 244.597656 529.96875 245.378906 530.28125 246.136719 C 530.59375 246.894531 530.980469 247.613281 531.433594 248.292969 C 531.890625 248.976562 532.410156 249.605469 532.988281 250.1875 C 533.566406 250.765625 534.199219 251.285156 534.878906 251.738281 C 535.5625 252.195312 536.28125 252.578125 537.039062 252.894531 C 537.796875 253.207031 538.578125 253.445312 539.382812 253.605469 C 540.1875 253.765625 541 253.84375 541.816406 253.84375 C 542.636719 253.84375 543.449219 253.765625 544.253906 253.605469 C 545.058594 253.445312 545.839844 253.207031 546.597656 252.894531 C 547.355469 252.578125 548.074219 252.195312 548.757812 251.738281 C 549.4375 251.285156 550.070312 250.765625 550.648438 250.1875 C 551.226562 249.605469 551.746094 248.976562 552.203125 248.292969 C 552.65625 247.613281 553.042969 246.894531 553.355469 246.136719 C 553.667969 245.378906 553.90625 244.597656 554.066406 243.792969 C 554.226562 242.988281 554.304688 242.175781 554.304688 241.355469 L 554.304688 207.3125 L 597.039062 207.3125 C 597.855469 207.308594 598.667969 207.386719 599.46875 207.542969 C 600.269531 207.703125 601.050781 207.9375 601.808594 208.246094 C 602.5625 208.558594 603.28125 208.941406 603.960938 209.394531 C 604.640625 209.847656 605.269531 210.363281 605.847656 210.941406 C 606.425781 211.519531 606.941406 212.148438 607.398438 212.832031 C 607.851562 213.511719 608.234375 214.230469 608.542969 214.984375 C 608.855469 215.742188 609.089844 216.519531 609.246094 217.324219 C 609.40625 218.125 609.480469 218.933594 609.480469 219.753906 Z M 609.480469 410.007812" fill="#7bacfc"/></g><path fill-rule="nonzero" fill-opacity="1" d="M 575.625 271.980469 L 449.136719 272.835938 C 448.632812 272.972656 448.164062 273.1875 447.730469 273.476562 C 447.300781 273.769531 446.925781 274.121094 446.609375 274.535156 C 446.292969 274.949219 446.050781 275.402344 445.882812 275.894531 C 445.714844 276.390625 445.632812 276.898438 445.632812 277.417969 C 445.632812 277.941406 445.714844 278.445312 445.882812 278.941406 C 446.050781 279.433594 446.292969 279.886719 446.609375 280.300781 C 446.925781 280.714844 447.300781 281.070312 447.730469 281.359375 C 448.164062 281.648438 448.632812 281.863281 449.136719 282 L 575.910156 281.195312 C 576.414062 281.058594 576.878906 280.84375 577.3125 280.550781 C 577.746094 280.261719 578.121094 279.910156 578.4375 279.496094 C 578.753906 279.082031 578.996094 278.628906 579.160156 278.132812 C 579.328125 277.640625 579.414062 277.132812 579.414062 276.613281 C 579.414062 276.089844 579.328125 275.582031 579.160156 275.089844 C 578.996094 274.59375 578.753906 274.140625 578.4375 273.726562 C 578.121094 273.3125 577.746094 272.960938 577.3125 272.671875 C 576.878906 272.378906 576.414062 272.167969 575.910156 272.03125 Z M 575.625 271.980469" fill="#7bacfc"/><path fill-rule="nonzero" fill-opacity="1" d="M 575.625 318.941406 L 449.136719 319.796875 C 448.632812 319.933594 448.164062 320.144531 447.730469 320.4375 C 447.300781 320.726562 446.925781 321.078125 446.609375 321.492188 C 446.292969 321.90625 446.050781 322.363281 445.882812 322.855469 C 445.714844 323.347656 445.632812 323.855469 445.632812 324.378906 C 445.632812 324.898438 445.714844 325.40625 445.882812 325.898438 C 446.050781 326.394531 446.292969 326.847656 446.609375 327.261719 C 446.925781 327.675781 447.300781 328.027344 447.730469 328.316406 C 448.164062 328.609375 448.632812 328.824219 449.136719 328.960938 L 575.910156 328.105469 C 576.414062 327.96875 576.878906 327.753906 577.3125 327.464844 C 577.746094 327.171875 578.121094 326.820312 578.4375 326.40625 C 578.753906 325.992188 578.996094 325.539062 579.160156 325.042969 C 579.328125 324.550781 579.414062 324.042969 579.414062 323.523438 C 579.414062 323 579.328125 322.492188 579.160156 322 C 578.996094 321.507812 578.753906 321.054688 578.4375 320.640625 C 578.121094 320.226562 577.746094 319.871094 577.3125 319.582031 C 576.878906 319.292969 576.414062 319.078125 575.910156 318.941406 Z M 575.625 318.941406" fill="#7bacfc"/><path fill-rule="nonzero" fill-opacity="1" d="M 575.625 365.851562 L 449.136719 366.945312 C 448.824219 366.945312 448.515625 366.972656 448.210938 367.035156 C 447.902344 367.097656 447.605469 367.1875 447.316406 367.304688 C 447.03125 367.425781 446.757812 367.570312 446.496094 367.746094 C 446.238281 367.917969 446 368.113281 445.777344 368.335938 C 445.558594 368.554688 445.359375 368.796875 445.1875 369.054688 C 445.015625 369.3125 444.867188 369.585938 444.75 369.875 C 444.628906 370.164062 444.539062 370.460938 444.476562 370.765625 C 444.417969 371.070312 444.386719 371.378906 444.386719 371.691406 C 444.386719 372.003906 444.417969 372.3125 444.476562 372.617188 C 444.539062 372.925781 444.628906 373.222656 444.75 373.507812 C 444.867188 373.796875 445.015625 374.070312 445.1875 374.328125 C 445.359375 374.589844 445.558594 374.828125 445.777344 375.050781 C 446 375.269531 446.238281 375.46875 446.496094 375.640625 C 446.757812 375.8125 447.03125 375.960938 447.316406 376.078125 C 447.605469 376.199219 447.902344 376.289062 448.210938 376.347656 C 448.515625 376.410156 448.824219 376.441406 449.136719 376.441406 L 575.910156 375.015625 C 576.261719 375.113281 576.621094 375.164062 576.984375 375.179688 C 577.347656 375.191406 577.710938 375.164062 578.070312 375.09375 C 578.425781 375.023438 578.773438 374.914062 579.105469 374.761719 C 579.4375 374.613281 579.75 374.425781 580.039062 374.207031 C 580.328125 373.984375 580.589844 373.734375 580.820312 373.449219 C 581.054688 373.167969 581.25 372.863281 581.410156 372.539062 C 581.574219 372.210938 581.695312 371.871094 581.777344 371.515625 C 581.863281 371.160156 581.902344 370.796875 581.902344 370.433594 C 581.902344 370.070312 581.863281 369.707031 581.777344 369.355469 C 581.695312 369 581.574219 368.65625 581.410156 368.332031 C 581.25 368.003906 581.054688 367.699219 580.820312 367.417969 C 580.589844 367.136719 580.328125 366.882812 580.039062 366.660156 C 579.75 366.441406 579.4375 366.253906 579.105469 366.105469 C 578.773438 365.953125 578.425781 365.84375 578.070312 365.773438 C 577.710938 365.703125 577.347656 365.675781 576.984375 365.6875 C 576.621094 365.703125 576.261719 365.757812 575.910156 365.851562 Z M 575.625 365.851562" fill="#7bacfc"/></svg>