<svg version="1.0" preserveAspectRatio="xMidYMid meet" viewBox="237.6 23.99999996 568.8000000000001 553.199999078" zoomAndPan="magnify" xmlns:xlink="http://www.w3.org/1999/xlink" xmlns="http://www.w3.org/2000/svg" style="max-height: 500px" width="568.8000000000001" height="553.199999078"><path stroke-miterlimit="4" stroke-opacity="1" stroke-width="37" stroke="#7bacfc" d="M 0.00257953 18.498671 L 705.986985 18.498671" stroke-linejoin="miter" fill="none" transform="matrix(0, 0.75, -0.75, 0, 277.588846, 35.255878)" stroke-linecap="butt"/><path stroke-miterlimit="4" stroke-opacity="1" stroke-width="37" stroke="#7bacfc" d="M 0.00154001 18.500731 L 705.984402 18.502525" stroke-linejoin="miter" fill="none" transform="matrix(0.749996, 0.00241604, -0.00241604, 0.749996, 263.813075, 535.159677)" stroke-linecap="butt"/><path stroke-miterlimit="4" stroke-opacity="1" stroke-width="45" stroke="#7bacfc" d="M -0.00210607 22.501248 L 521.326041 22.501248" stroke-linejoin="miter" fill="none" transform="matrix(0.75, -0.000000000000000372, 0.000000000000000372, 0.75, 304.169548, 455.624065)" stroke-linecap="butt"/><path stroke-miterlimit="4" stroke-opacity="1" stroke-width="45" stroke="#7bacfc" d="M -0.00210607 22.501611 L 336.951033 22.501611" stroke-linejoin="miter" fill="none" transform="matrix(0.75, 0, 0, 0.75, 304.169548, 377.311293)" stroke-linecap="butt"/><path stroke-miterlimit="4" stroke-opacity="1" stroke-width="45" stroke="#7bacfc" d="M -0.00210607 22.498481 L 443.19583 22.498481" stroke-linejoin="miter" fill="none" transform="matrix(0.75, 0, 0, 0.75, 304.169548, 295.528483)" stroke-linecap="butt"/><path stroke-miterlimit="4" stroke-opacity="1" stroke-width="45" stroke="#7bacfc" d="M -0.00210607 22.501339 L 391.956244 22.501339" stroke-linejoin="miter" fill="none" transform="matrix(0.75, 0, 0, 0.75, 304.169548, 211.284153)" stroke-linecap="butt"/><path stroke-miterlimit="4" stroke-opacity="1" stroke-width="45" stroke="#7bacfc" d="M -0.00210607 22.501076 L 194.888527 22.501076" stroke-linejoin="miter" fill="none" transform="matrix(0.75, 0, 0, 0.75, 304.169548, 130.874194)" stroke-linecap="butt"/></svg>